<svg width="23" height="18" viewBox="0 0 23 18" fill="none" xmlns="http://www.w3.org/2000/svg">
<path d="M14.9371 16.9219C15.209 16.7859 22.3387 9.64688 22.4371 9.4125C22.5262 9.1875 22.5262 8.8125 22.4371 8.5875C22.3855 8.46563 21.2793 7.33125 18.7668 4.80938C14.984 1.02187 14.9465 0.984375 14.5387 0.984375C14.2246 0.984375 14.009 1.07812 13.784 1.3125C13.4512 1.65 13.3902 2.06719 13.6059 2.48438C13.6527 2.57344 14.8809 3.83906 16.3387 5.29688L18.9918 7.94531L10.0996 7.96875L1.20274 7.99219L0.991798 8.10938C0.879299 8.175 0.719923 8.32031 0.640236 8.42813C0.513674 8.61563 0.499611 8.66719 0.499611 9C0.499611 9.33281 0.513674 9.38438 0.640236 9.57188C0.719923 9.67969 0.879299 9.825 0.991798 9.89062L1.20274 10.0078L10.0996 10.0312L18.9918 10.0547L16.3152 12.7266C14.5105 14.5312 13.6105 15.4594 13.5496 15.5859C13.3199 16.0734 13.5355 16.6688 14.0324 16.9266C14.2668 17.0484 14.6887 17.0438 14.9371 16.9219Z" fill="url(#paint0_linear_219_246)"/>
<defs>
<linearGradient id="paint0_linear_219_246" x1="22.944" y1="9" x2="0.489322" y2="9.0585" gradientUnits="userSpaceOnUse">
<stop stop-color="#0ECA90"/>
<stop offset="1" stop-color="#11C2B6"/>
</linearGradient>
</defs>
</svg>
