<svg width="24" height="24" viewBox="0 0 24 24" fill="none" xmlns="http://www.w3.org/2000/svg">
<path d="M8.55508 4.07813C8.2832 4.21407 1.15352 11.3531 1.05508 11.5875C0.966016 11.8125 0.966016 12.1875 1.05508 12.4125C1.10664 12.5344 2.21289 13.6688 4.72539 16.1906C8.5082 19.9781 8.5457 20.0156 8.95352 20.0156C9.26758 20.0156 9.4832 19.9219 9.7082 19.6875C10.041 19.35 10.102 18.9328 9.88633 18.5156C9.83945 18.4266 8.61133 17.1609 7.15352 15.7031L4.50039 13.0547L13.3926 13.0313L22.2895 13.0078L22.5004 12.8906C22.6129 12.825 22.7723 12.6797 22.852 12.5719C22.9785 12.3844 22.9926 12.3328 22.9926 12C22.9926 11.6672 22.9785 11.6156 22.852 11.4281C22.7723 11.3203 22.6129 11.175 22.5004 11.1094L22.2895 10.9922L13.3926 10.9688L4.50039 10.9453L7.17695 8.27344C8.98164 6.46875 9.88164 5.54063 9.94258 5.41407C10.1723 4.92657 9.95664 4.33125 9.45977 4.07344C9.22539 3.95157 8.80352 3.95625 8.55508 4.07813Z" fill="#142922"/>
</svg>
