<svg width="24" height="24" viewBox="0 0 24 24" fill="none" xmlns="http://www.w3.org/2000/svg">
<path d="M15.4254 19.9219C15.6973 19.7859 22.827 12.6469 22.9254 12.4125C23.0145 12.1875 23.0145 11.8125 22.9254 11.5875C22.8738 11.4656 21.7676 10.3313 19.2551 7.80938C15.4723 4.02188 15.4348 3.98438 15.027 3.98438C14.7129 3.98438 14.4973 4.07812 14.2723 4.3125C13.9395 4.65 13.8785 5.06719 14.0941 5.48438C14.141 5.57344 15.3691 6.83906 16.827 8.29688L19.4801 10.9453L10.5879 10.9688L1.69102 10.9922L1.48008 11.1094C1.36758 11.175 1.2082 11.3203 1.12852 11.4281C1.00196 11.6156 0.987892 11.6672 0.987892 12C0.987892 12.3328 1.00196 12.3844 1.12852 12.5719C1.2082 12.6797 1.36758 12.825 1.48008 12.8906L1.69102 13.0078L10.5879 13.0312L19.4801 13.0547L16.8035 15.7266C14.9988 17.5313 14.0988 18.4594 14.0379 18.5859C13.8082 19.0734 14.0238 19.6688 14.5207 19.9266C14.7551 20.0484 15.177 20.0438 15.4254 19.9219Z" fill="#142922"/>
</svg>
