<svg width="32" height="32" viewBox="0 0 32 32" fill="none" xmlns="http://www.w3.org/2000/svg">
<path d="M17.0125 6.58731L17.0312 11.1373L17.4688 11.2748C18.8125 11.7061 19.875 12.6373 20.475 13.9061C20.8063 14.6186 20.9375 15.1998 20.9375 15.9998C20.9375 16.7998 20.8063 17.3811 20.475 18.0936C19.8813 19.3561 18.7938 20.3061 17.4688 20.7248L17.0312 20.8623L17.0125 25.4123L17 29.9561L17.5312 29.9123C18.2625 29.8561 19.2812 29.6561 19.5187 29.5123C19.6313 29.4498 19.7812 29.3061 19.8563 29.1873C19.9875 28.9998 20 28.9061 20 28.1561V27.3373L20.3312 27.2186C20.5063 27.1561 20.7625 27.0498 20.9 26.9873L21.1438 26.8623L21.6813 27.3936C21.975 27.6873 22.2812 27.9561 22.3563 27.9936C22.4313 28.0311 22.6438 28.0623 22.8313 28.0623C23.1438 28.0623 23.225 28.0311 23.725 27.6998C25.2937 26.6686 26.6687 25.2936 27.7 23.7248C28.0312 23.2248 28.0625 23.1436 28.0625 22.8311C28.0625 22.6436 28.0312 22.4311 27.9938 22.3561C27.9563 22.2811 27.6875 21.9748 27.3938 21.6811L26.8625 21.1436L26.9875 20.8998C27.05 20.7623 27.1562 20.5061 27.2188 20.3248L27.3375 19.9998H28.1562C28.9062 19.9998 29 19.9873 29.1938 19.8561C29.5 19.6561 29.6625 19.2686 29.825 18.3748C29.95 17.6936 29.9688 17.3873 29.9688 15.9998C29.9688 14.6123 29.95 14.3061 29.825 13.6248C29.6625 12.7311 29.5 12.3436 29.1938 12.1436C29 12.0123 28.9062 11.9998 28.1562 11.9998H27.3375L27.2188 11.6686C27.1562 11.4936 27.05 11.2373 26.9875 11.0998L26.8625 10.8561L27.3938 10.3186C27.6875 10.0248 27.9563 9.71855 27.9938 9.64355C28.0312 9.56855 28.0625 9.35605 28.0625 9.16855C28.0625 8.85605 28.0312 8.77481 27.7 8.27481C26.6687 6.70605 25.2937 5.33105 23.725 4.2998C23.225 3.96855 23.1438 3.9373 22.8313 3.9373C22.6438 3.9373 22.4313 3.96855 22.3563 4.00605C22.2812 4.04355 21.975 4.3123 21.6813 4.60605L21.1438 5.1373L20.9 5.0123C20.7625 4.9498 20.5063 4.84355 20.3312 4.78105L20 4.6623V3.84355C20 3.09355 19.9875 2.9998 19.8563 2.8123C19.7812 2.69355 19.6313 2.5498 19.5187 2.4873C19.2812 2.34355 18.2625 2.14355 17.5312 2.08731L17 2.04355L17.0125 6.58731Z" fill="url(#paint0_linear_219_178)"/>
<path d="M11.9057 3.11843C10.8807 3.39968 10.1744 3.78093 9.48695 4.42468C8.41195 5.44343 7.8557 6.66843 7.7682 8.21843C7.6682 10.0809 8.32445 11.9559 9.44945 13.0497L9.7307 13.3184L9.97445 12.8997C10.2744 12.3872 11.2494 11.2372 11.4682 11.1372C11.7244 11.0184 12.1744 11.0434 12.4119 11.1872C12.6869 11.3622 12.8994 11.8059 12.8557 12.1059C12.8119 12.3684 12.6807 12.5622 12.1057 13.2247C11.3807 14.0622 11.1244 14.7747 11.1244 15.9997C11.1244 17.2247 11.3807 17.9372 12.1057 18.7747C12.9057 19.6934 12.9932 19.9059 12.7494 20.3997C12.5744 20.7622 12.2994 20.9372 11.8994 20.9372C11.5119 20.9372 11.3494 20.8309 10.7994 20.2122C9.63695 18.8934 9.2682 17.9809 9.2057 16.2622L9.1682 15.3122L8.91195 15.1247C8.54945 14.8559 7.7807 14.0934 7.4682 13.6872C6.56195 12.4997 6.0307 11.0497 5.86195 9.29968C5.82445 8.86218 5.7682 8.49968 5.7432 8.49968C5.5932 8.49968 4.6932 9.19968 4.29945 9.61843C3.74945 10.2059 3.48695 10.6309 3.22445 11.3559C3.03695 11.8934 3.0307 11.9309 3.0307 12.9997C3.0307 13.9559 3.04945 14.1559 3.17445 14.5934C3.6557 16.2622 4.71195 17.3622 6.3307 17.8809C7.09945 18.1247 7.2182 18.1997 7.3807 18.5059C7.6682 19.0809 7.38695 19.7059 6.74945 19.8747C6.26195 20.0059 4.62445 19.3622 3.74945 18.6997C3.52445 18.5309 3.1057 18.1434 2.82445 17.8434L2.31195 17.2934L2.21195 17.5372C2.0057 18.0309 1.92445 18.6247 1.9557 19.4059C1.9932 20.2934 2.13695 20.8434 2.5307 21.6559C3.17445 22.9872 4.5182 24.0559 6.0307 24.4372C6.64945 24.5934 7.76195 24.6122 8.41195 24.4747C9.2182 24.3122 10.1119 23.8872 10.6932 23.3997C10.9932 23.1497 11.2932 22.9997 11.5119 22.9997C11.7494 22.9997 12.1744 23.2497 12.3119 23.4622C12.4744 23.7309 12.4807 24.2122 12.3182 24.4747C12.1369 24.7747 11.2432 25.4059 10.4744 25.7809C9.06195 26.4684 7.6682 26.6622 5.91195 26.3997L5.6057 26.3559L5.8682 26.8497C6.67445 28.4059 8.18695 29.5497 9.88695 29.8997C10.4432 30.0122 11.7057 30.0309 12.1994 29.9309C13.0682 29.7559 13.9244 29.3747 14.6557 28.8434L14.9994 28.5934L14.9807 15.9372L14.9682 3.28718L14.5932 3.16843C14.0244 2.98718 12.4994 2.95593 11.9057 3.11843Z" fill="url(#paint1_linear_219_178)"/>
<defs>
<linearGradient id="paint0_linear_219_178" x1="16.7406" y1="15.9998" x2="29.9749" y2="15.9882" gradientUnits="userSpaceOnUse">
<stop stop-color="#0ECA90"/>
<stop offset="1" stop-color="#11C2B6"/>
</linearGradient>
<linearGradient id="paint1_linear_219_178" x1="1.68821" y1="16.5044" x2="15.0056" y2="16.4922" gradientUnits="userSpaceOnUse">
<stop stop-color="#0ECA90"/>
<stop offset="1" stop-color="#11C2B6"/>
</linearGradient>
</defs>
</svg>
