<svg width="14" height="15" viewBox="0 0 14 15" fill="none" xmlns="http://www.w3.org/2000/svg">
<path d="M0.409249 0.560527C0.264327 0.634355 0.12214 0.812089 0.0783901 0.973417C0.0401088 1.11287 0.0592495 1.33709 0.119406 1.45193C0.152218 1.51482 3.23112 4.8781 5.22995 7.03279C5.32019 7.13123 5.42683 7.27889 5.46511 7.36092L5.5362 7.51404L5.54987 10.8637C5.56354 14.1504 5.56354 14.216 5.61823 14.3062C5.64831 14.3554 5.71667 14.4211 5.76862 14.4484C5.88894 14.514 6.10222 14.5168 6.21159 14.4512C6.28269 14.4101 7.85768 12.6301 8.21315 12.1926C8.45104 11.8945 8.4319 12.1023 8.44831 9.6742L8.46198 7.51404L8.53308 7.36365C8.58776 7.24334 9.12917 6.64178 11.2182 4.37498C12.6592 2.81365 13.8569 1.49568 13.8815 1.4492C13.9526 1.31795 13.9471 0.984355 13.8706 0.842168C13.7967 0.702714 13.6846 0.596074 13.5561 0.544121C13.4659 0.505839 12.7714 0.500371 6.99089 0.500371H0.529562L0.409249 0.560527Z" fill="#E0E0FB"/>
</svg>
