<svg width="28" height="28" viewBox="0 0 28 28" fill="none" xmlns="http://www.w3.org/2000/svg" >
<path d="M6.79219 1.64043C4.83437 1.80449 3.05156 2.75606 1.80469 4.30371C0.6125 5.79121 0 7.62324 0 9.71231C0.00546875 12.0092 0.7875 13.967 2.625 16.2693C3.34687 17.1717 5.41406 19.2443 6.91797 20.5678C8.73906 22.1756 13.4805 26.2334 13.6172 26.3045C13.7812 26.392 14.2188 26.392 14.3828 26.3045C14.5195 26.2334 19.2609 22.1756 21.082 20.5678C22.5859 19.2443 24.6531 17.1717 25.375 16.2693C27.2125 13.967 27.9945 12.0092 28 9.71231C28 6.81387 26.7805 4.33105 24.6148 2.85449C24.0078 2.43887 23.5867 2.22559 22.8977 1.9959C22.0938 1.72793 21.4867 1.63496 20.5625 1.63496C19.3539 1.63496 18.375 1.86465 17.418 2.37324C16.2203 3.00762 14.9734 4.24356 14.257 5.50684C14.1312 5.72559 14.0164 5.90059 14 5.90059C13.9836 5.90059 13.8687 5.72559 13.743 5.50684C13.2234 4.58809 12.3047 3.55449 11.457 2.92559C10.1227 1.94121 8.52031 1.49824 6.79219 1.64043ZM8.42188 3.40137C8.58594 3.42871 8.91953 3.53262 9.16016 3.62012C10.8609 4.26543 12.1789 5.74199 13.0703 8.00059C13.3164 8.62949 13.4258 8.76074 13.7867 8.87012C13.9508 8.91387 14.0492 8.91387 14.2133 8.87012C14.5742 8.76074 14.6836 8.62949 14.9297 8.00059C15.7391 5.94434 16.9422 4.49512 18.4023 3.80059C19.8242 3.1334 21.4484 3.14981 22.9414 3.84981C24.5602 4.61543 25.6977 6.13574 26.1734 8.17559C26.3156 8.78262 26.3211 10.4396 26.1844 11.0795C25.8836 12.4576 25.1453 13.8521 23.9094 15.3615C23.2914 16.1162 21.443 17.9646 20.2234 19.0475C19.0312 20.1084 14.0383 24.3904 14 24.3904C13.9617 24.3904 8.96875 20.1084 7.77656 19.0475C6.55703 17.9646 4.70859 16.1162 4.09062 15.3615C2.85469 13.8521 2.11641 12.4576 1.81562 11.0795C1.67891 10.4396 1.68437 8.78262 1.82656 8.17559C2.20391 6.55137 2.98047 5.28262 4.11797 4.42402C5.3375 3.49981 6.93984 3.11699 8.42188 3.40137Z" fill="#E0E0FB"/>
</svg>
