<svg width="16" height="16" viewBox="0 0 16 16" fill="none" xmlns="http://www.w3.org/2000/svg">
<path d="M1.3655 0.0732827C1.01827 0.186424 0.8154 0.307369 0.561807 0.560962C0.183368 0.939402 0 1.38026 0 1.91086C0 2.69505 0.417454 3.36219 1.11971 3.69382C1.39671 3.82646 1.45914 3.84207 1.82197 3.85377C2.30965 3.87328 2.63737 3.78745 3.0002 3.54556C3.30452 3.34269 3.48788 3.12811 3.65174 2.78868C3.93655 2.19957 3.92875 1.60655 3.63614 1.01353C3.50739 0.752133 3.13285 0.369792 2.86365 0.225439C2.4423 -0.000844717 1.79856 -0.0671692 1.3655 0.0732827Z" fill="url(#paint0_linear_219_320)"/>
<path d="M11.6059 5.05549C10.377 5.23105 9.51087 5.73044 8.97637 6.57705L8.85543 6.76432V6.03475V5.30518H7.25584H5.65625V10.6501V15.9951H7.33387H9.00758L9.01929 12.8428C9.03489 9.75672 9.03489 9.68649 9.11682 9.39389C9.36261 8.52777 9.83859 8.09081 10.6423 8.00497C11.684 7.88793 12.3082 8.31709 12.5501 9.31196C12.6086 9.54604 12.6164 9.95569 12.6281 12.7842L12.6437 15.9951H14.3213H15.999L15.9834 12.3551C15.9677 9.20272 15.9599 8.66822 15.9014 8.3522C15.6907 7.13886 15.2889 6.31955 14.653 5.80456C14.2355 5.46904 13.7283 5.25056 13.0807 5.13352C12.7569 5.07109 11.8244 5.02428 11.6059 5.05549Z" fill="url(#paint1_linear_219_320)"/>
<path d="M0.234375 10.6501V15.9951H1.91199H3.58961V10.6501V5.30518H1.91199H0.234375V10.6501Z" fill="url(#paint2_linear_219_320)"/>
<defs>
<linearGradient id="paint0_linear_219_320" x1="-0.0772112" y1="1.92812" x2="3.86238" y2="1.92063" gradientUnits="userSpaceOnUse">
<stop stop-color="#0ECA90"/>
<stop offset="1" stop-color="#11C2B6"/>
</linearGradient>
<linearGradient id="paint1_linear_219_320" x1="5.4494" y1="10.5203" x2="16.0038" y2="10.5014" gradientUnits="userSpaceOnUse">
<stop stop-color="#0ECA90"/>
<stop offset="1" stop-color="#11C2B6"/>
</linearGradient>
<linearGradient id="paint2_linear_219_320" x1="0.16727" y1="10.6502" x2="3.5912" y2="10.6481" gradientUnits="userSpaceOnUse">
<stop stop-color="#0ECA90"/>
<stop offset="1" stop-color="#11C2B6"/>
</linearGradient>
</defs>
</svg>
