<svg width="16" height="14" viewBox="0 0 16 14" fill="none" xmlns="http://www.w3.org/2000/svg">
<path d="M7.83406 3.00495C-0.641026 6.27445 0.0116249 5.99965 0.0116249 6.32129C0.0116249 6.55237 0.0928159 6.67728 0.302039 6.76784C0.389475 6.80532 1.25135 7.13008 2.21315 7.48919L3.965 8.14184L4.67698 10.4371C5.07045 11.7018 5.41707 12.7791 5.4483 12.8322C5.54822 12.9977 5.79492 13.0758 5.98228 13.0039C6.02288 12.9883 6.53813 12.5792 7.13145 12.0983C7.72477 11.6143 8.25563 11.1959 8.31496 11.1709C8.44924 11.1147 8.60225 11.1147 8.74278 11.174C8.80211 11.199 9.66086 11.8079 10.6539 12.5262C11.6438 13.2475 12.5119 13.8721 12.5775 13.9189C12.7898 14.0625 13.1021 14.0095 13.2333 13.8065C13.2895 13.719 16 0.687888 16 0.503648C16 0.247583 15.8189 0.0695877 15.5566 0.0758333C15.4566 0.0758333 13.5049 0.815921 7.83406 3.00495ZM12.4963 2.9831C12.5182 3.00495 12.5338 3.04243 12.5338 3.07365C12.5338 3.10176 11.1691 4.39145 9.5016 5.94344C7.58737 7.7234 6.43508 8.81323 6.37887 8.90379C6.24147 9.11926 6.204 9.28164 6.08533 10.1591C5.99477 10.818 5.96667 10.9648 5.91358 11.0148C5.86362 11.0647 5.83552 11.071 5.76682 11.046C5.6825 11.0179 5.66689 10.971 5.26718 9.58142C5.01736 8.7133 4.85498 8.08876 4.85186 8.00132C4.85186 7.82333 4.97676 7.56102 5.11104 7.46733C5.23907 7.37365 12.4182 2.94874 12.4432 2.94562C12.4526 2.94562 12.4744 2.96124 12.4963 2.9831Z" fill="url(#paint0_linear_219_255)"/>
<defs>
<linearGradient id="paint0_linear_219_255" x1="-0.32" y1="7.03785" x2="16.0075" y2="7.00224" gradientUnits="userSpaceOnUse">
<stop stop-color="#0ECA90"/>
<stop offset="1" stop-color="#11C2B6"/>
</linearGradient>
</defs>
</svg>
