<svg width="32" height="32" viewBox="0 0 32 32" fill="none" xmlns="http://www.w3.org/2000/svg">
<path d="M4.1875 1.80004C3.7875 2.00004 3.75 2.15628 3.75 3.78753V5.23129L3.45 5.27503C2.8 5.36254 2.14375 5.86254 1.85625 6.48754L1.71875 6.78128V14.5625V22.3438L1.88125 22.6875C2.18125 23.3125 2.80625 23.7813 3.44375 23.8563L3.75 23.8938V25.325C3.75 26.925 3.78125 27.0938 4.1375 27.3125C4.53125 27.55 5.05 27.4313 5.275 27.0625C5.3625 26.9125 5.375 26.6625 5.375 25.3875V23.8938L5.6875 23.8563C6.325 23.7813 6.9 23.3875 7.21875 22.8063L7.40625 22.4688L7.425 14.6938C7.44375 6.00628 7.46875 6.60003 7 6.00628C6.71875 5.65003 6.15 5.33753 5.68125 5.27503L5.375 5.23129V3.75628C5.375 2.13754 5.3625 2.06879 5.00625 1.83129C4.75 1.66254 4.48125 1.65004 4.1875 1.80004Z" fill="url(#paint0_linear_219_87)"/>
<path d="M26.9943 1.83125C26.6443 2.0625 26.6256 2.15 26.6256 3.56875V4.8625L26.3318 4.90625C25.6506 5 25.0381 5.4375 24.7443 6.0375L24.5943 6.34375L24.5756 14.7188C24.5568 24.325 24.5068 23.4375 25.1568 24.1C25.5256 24.475 25.9381 24.6875 26.2881 24.6875C26.6318 24.6875 26.6256 24.6625 26.6256 26.0562C26.6256 27.2375 26.6381 27.3625 26.7506 27.55C26.8818 27.7625 27.2006 27.9375 27.4506 27.9375C27.6818 27.9375 28.0131 27.725 28.1381 27.4938C28.2381 27.3125 28.2506 27.125 28.2506 26.025C28.2506 24.65 28.2381 24.6875 28.6193 24.6875C28.8881 24.6875 29.5381 24.3312 29.7756 24.05C29.8943 23.9125 30.0568 23.6687 30.1381 23.5062L30.2818 23.2188V14.8125V6.40625L30.1068 6.05C29.8631 5.55 29.4131 5.1625 28.8943 5C28.6693 4.93125 28.4318 4.875 28.3693 4.875C28.2568 4.875 28.2506 4.8125 28.2506 3.60625C28.2506 2.175 28.2068 1.99375 27.8131 1.8C27.5193 1.65 27.2506 1.6625 26.9943 1.83125Z" fill="url(#paint1_linear_219_87)"/>
<path d="M11.8117 7.57461C11.7305 7.61836 11.593 7.75586 11.518 7.86836C11.3867 8.06211 11.3742 8.14961 11.3742 8.97461C11.3742 9.81836 11.368 9.87461 11.2555 9.87461C11.193 9.87461 10.9492 9.93086 10.7117 10.0059C10.1617 10.1746 9.64922 10.6559 9.44297 11.2121C9.31172 11.5746 9.30547 11.5934 9.32422 15.6496L9.34297 19.7184L9.49922 20.0309C9.80547 20.6621 10.5555 21.1871 11.1555 21.1871H11.368L11.3867 22.1496C11.4055 23.2559 11.4617 23.3934 11.9242 23.5621C12.1555 23.6434 12.218 23.6434 12.4492 23.5621C12.618 23.4996 12.7617 23.3934 12.8555 23.2559C12.9867 23.0559 12.9992 22.9809 12.9992 22.1184V21.1871H13.218C13.8805 21.1871 14.6742 20.5934 14.9305 19.9121C15.0617 19.5496 15.068 19.5309 15.0492 15.4434L15.0305 11.3434L14.8617 11.0309C14.5492 10.4371 13.943 9.99961 13.2992 9.90586L13.0055 9.86211L12.9867 8.89961L12.968 7.93711L12.768 7.74336C12.618 7.58711 12.5055 7.53711 12.268 7.51836C12.093 7.50586 11.9055 7.53086 11.8117 7.57461Z" fill="url(#paint2_linear_219_87)"/>
<path d="M19.2625 10.7124L19.0312 10.9249L19.0125 11.6686C18.9938 12.1374 18.9625 12.4249 18.9188 12.4499C18.875 12.4749 18.7625 12.4999 18.6562 12.4999C18.3875 12.4999 17.8188 12.7811 17.5437 13.0499C17.4125 13.1749 17.225 13.4186 17.1375 13.5936L16.9688 13.9061L16.95 20.2936L16.9375 26.6749L17.0688 27.0374C17.325 27.7186 18.125 28.3124 18.7812 28.3124H19V29.0124C19 29.5999 19.0187 29.7499 19.125 29.9186C19.3563 30.3061 19.85 30.4249 20.2375 30.1874C20.5375 29.9999 20.625 29.7374 20.625 28.9811V28.3311L20.9313 28.2999C21.5563 28.2374 22.2 27.7686 22.5062 27.1561L22.6562 26.8436V20.4061V13.9686L22.525 13.6811C22.45 13.5186 22.2875 13.2749 22.1562 13.1374C21.9 12.8499 21.2625 12.4999 20.9938 12.4999C20.6375 12.4999 20.625 12.4811 20.625 11.7499C20.625 11.1561 20.6063 11.0561 20.4813 10.8686C20.3063 10.6061 20.1063 10.4999 19.7625 10.4999C19.55 10.4999 19.4562 10.5374 19.2625 10.7124Z" fill="url(#paint3_linear_219_87)"/>
<defs>
<linearGradient id="paint0_linear_219_87" x1="1.60446" y1="14.5656" x2="7.43572" y2="14.5631" gradientUnits="userSpaceOnUse">
<stop stop-color="#0ECA90"/>
<stop offset="1" stop-color="#11C2B6"/>
</linearGradient>
<linearGradient id="paint1_linear_219_87" x1="24.4521" y1="14.8165" x2="30.2845" y2="14.8141" gradientUnits="userSpaceOnUse">
<stop stop-color="#0ECA90"/>
<stop offset="1" stop-color="#11C2B6"/>
</linearGradient>
<linearGradient id="paint2_linear_219_87" x1="9.20159" y1="15.5691" x2="15.0598" y2="15.5651" gradientUnits="userSpaceOnUse">
<stop stop-color="#0ECA90"/>
<stop offset="1" stop-color="#11C2B6"/>
</linearGradient>
<linearGradient id="paint3_linear_219_87" x1="16.8231" y1="20.4047" x2="22.659" y2="20.4015" gradientUnits="userSpaceOnUse">
<stop stop-color="#0ECA90"/>
<stop offset="1" stop-color="#11C2B6"/>
</linearGradient>
</defs>
</svg>
