<svg width="15" height="14" viewBox="0 0 15 14" fill="none" xmlns="http://www.w3.org/2000/svg">
<path d="M8.64482 0.0776114C8.23542 0.293901 8.10796 0.89256 8.37832 1.32128C8.5753 1.63026 8.61393 1.63799 9.97732 1.66116L11.1631 1.68047L8.95767 3.88199C7.66379 5.17587 6.72139 6.14531 6.67504 6.23415C6.55917 6.46202 6.58621 6.84825 6.7407 7.06454C6.90292 7.30401 7.11921 7.41602 7.41274 7.41602C7.54406 7.41602 7.70628 7.39284 7.7758 7.36194C7.84532 7.33104 8.84953 6.35388 10.1202 5.08318L12.3411 2.85848L12.3604 4.04421C12.3835 5.40761 12.3913 5.44623 12.7003 5.64321C13.1406 5.9213 13.7585 5.77453 13.9478 5.34581C14.0212 5.18746 14.0212 5.06773 14.0134 2.82758L14.0019 0.479293L13.8976 0.320938C13.8358 0.228242 13.7276 0.131684 13.6272 0.0814738C13.4573 0.000365257 13.4225 0.000365257 11.1206 0.000365257C8.88429 0.00422764 8.78 0.00809002 8.64482 0.0776114Z" fill="url(#paint0_linear_219_336)"/>
<path d="M1.14325 0.887431C0.648869 1.04579 0.227877 1.46678 0.0772464 1.95729C0 2.20448 0 2.30876 0 7.41475C0 12.4976 0 12.625 0.0772464 12.8683C0.224014 13.3395 0.63342 13.7683 1.09304 13.9305C1.28229 13.9961 1.59127 14 6.60456 14C11.6179 14 11.9268 13.9961 12.1161 13.9305C12.5757 13.7683 12.9851 13.3395 13.1319 12.8683C13.2053 12.6366 13.2091 12.5091 13.2091 10.7209C13.2091 8.96354 13.2014 8.81291 13.1357 8.67C12.8924 8.13314 12.0697 8.06362 11.6874 8.54641L11.5676 8.69704L11.5561 10.5278L11.5445 12.3585H6.60456H1.6608V7.41475V2.47098H3.43746C5.10985 2.47098 5.22572 2.46712 5.3609 2.3976C5.72782 2.20834 5.87845 1.79894 5.75099 1.3316C5.69692 1.13462 5.46904 0.906742 5.27206 0.85267C5.16778 0.825634 4.4996 0.810184 3.24435 0.814047C1.51789 0.814047 1.35181 0.821772 1.14325 0.887431Z" fill="url(#paint1_linear_219_336)"/>
<defs>
<linearGradient id="paint0_linear_219_336" x1="6.45525" y1="3.7082" x2="14.0203" y2="3.69384" gradientUnits="userSpaceOnUse">
<stop stop-color="#0ECA90"/>
<stop offset="1" stop-color="#11C2B6"/>
</linearGradient>
<linearGradient id="paint1_linear_219_336" x1="-0.264183" y1="7.40674" x2="13.2153" y2="7.38111" gradientUnits="userSpaceOnUse">
<stop stop-color="#0ECA90"/>
<stop offset="1" stop-color="#11C2B6"/>
</linearGradient>
</defs>
</svg>
