<svg width="20" height="20" viewBox="0 0 20 20" fill="none" xmlns="http://www.w3.org/2000/svg">
<g clip-path="url(#clip0_219_219)">
<path d="M7.06998 0.0233707C7.01529 0.0311832 6.83951 0.058527 6.67936 0.0819645C5.99186 0.179621 5.05826 0.476496 4.41373 0.800714C2.12076 1.95306 0.577792 4.01556 0.0895103 6.58196C-0.00423968 7.07806 -0.0237709 8.43353 0.0543541 8.98431C0.30826 10.7421 1.0856 12.2968 2.3317 13.539C4.22623 15.4218 6.90201 16.2187 9.52311 15.6796C10.6208 15.4531 11.7497 14.9491 12.6169 14.3007L12.8708 14.1093L15.7614 16.9921C17.6051 18.8281 18.7028 19.8945 18.7965 19.9335C19.0075 20.0312 19.363 20.0195 19.5739 19.9101C19.8395 19.7695 19.9762 19.5468 19.9919 19.2226C20.0036 19.0234 19.9919 18.914 19.9411 18.8046C19.8942 18.7031 18.9372 17.7148 16.988 15.7616L14.1051 12.871L14.2028 12.7538C14.3942 12.5195 14.7497 11.9648 14.945 11.582C15.4645 10.5898 15.738 9.60149 15.8239 8.42962C15.9919 6.18353 15.1559 3.95696 13.5387 2.33196C12.3083 1.09759 10.7419 0.308527 9.0192 0.058527C8.64029 0.00383949 7.35904 -0.0156918 7.06998 0.0233707ZM8.91764 1.77728C10.9176 2.09368 12.7067 3.45696 13.5583 5.30462C14.6598 7.69524 14.1676 10.4452 12.3044 12.3046C9.85904 14.7538 5.95279 14.7499 3.51139 12.2968C2.5817 11.3593 1.99185 10.207 1.7692 8.89837C1.69498 8.44915 1.68717 7.43353 1.75357 7.03118C1.99967 5.58196 2.59732 4.4179 3.59732 3.45306C4.67936 2.414 5.98404 1.82806 7.49967 1.70306C7.78873 1.67962 8.55045 1.71868 8.91764 1.77728Z" fill="#9CA3D9"/>
</g>
<defs>
<clipPath id="clip0_219_219">
<rect width="20" height="20" fill="white"/>
</clipPath>
</defs>
</svg>
