<svg width="17" height="15" viewBox="0 0 17 15" fill="none" xmlns="http://www.w3.org/2000/svg">
<path d="M0.315049 0.587686C0.105016 0.718956 0 0.915862 0 1.20028C0 1.4847 0.105016 1.68161 0.315049 1.81288C0.459447 1.90039 0.551336 1.90039 6.65104 1.90039C12.7507 1.90039 12.8426 1.90039 12.987 1.81288C13.1971 1.68161 13.3021 1.4847 13.3021 1.20028C13.3021 0.915862 13.1971 0.718956 12.987 0.587686C12.8426 0.500172 12.7507 0.500172 6.65104 0.500172C0.551336 0.500172 0.459447 0.500172 0.315049 0.587686Z" fill="#E0E0FB"/>
<path d="M12.216 4.78817C12.1372 4.8363 12.0366 4.93694 11.9885 5.01571C11.9053 5.15573 11.9009 5.24324 11.9009 8.61689V12.0737L10.7108 10.8835C10.0544 10.2315 9.47243 9.67581 9.41992 9.64955C9.36742 9.6233 9.21864 9.60142 9.09175 9.60142C8.66731 9.60142 8.40039 9.86834 8.40039 10.2928C8.40039 10.4197 8.42664 10.5772 8.46165 10.6428C8.54041 10.7872 12.146 14.384 12.2816 14.4541C12.4041 14.5153 12.798 14.5153 12.9205 14.4541C13.0561 14.384 16.6617 10.7872 16.7404 10.6428C16.7754 10.5772 16.8017 10.4197 16.8017 10.2928C16.8017 9.86834 16.5348 9.60142 16.1103 9.60142C15.9835 9.60142 15.8347 9.6233 15.7822 9.64955C15.7297 9.67581 15.1477 10.2315 14.4957 10.8835L13.3012 12.0737V8.61689C13.3012 5.24324 13.2968 5.15573 13.2136 5.01571C13.0824 4.80567 12.8855 4.70066 12.601 4.70066C12.4391 4.70066 12.3123 4.72691 12.216 4.78817Z" fill="#E0E0FB"/>
<path d="M0.315049 6.18827C0.105016 6.31954 0 6.51645 0 6.80087C0 7.08529 0.105016 7.28219 0.315049 7.41346C0.455071 7.4966 0.542585 7.50098 3.8506 7.50098C7.15862 7.50098 7.24613 7.4966 7.38615 7.41346C7.59619 7.28219 7.7012 7.08529 7.7012 6.80087C7.7012 6.51645 7.59619 6.31954 7.38615 6.18827C7.24613 6.10513 7.15862 6.10076 3.8506 6.10076C0.542585 6.10076 0.455071 6.10513 0.315049 6.18827Z" fill="#E0E0FB"/>
<path d="M0.315049 11.7889C0.105016 11.9201 0 12.117 0 12.4015C0 12.6859 0.105016 12.8828 0.315049 13.014C0.455071 13.0972 0.542585 13.1016 3.15049 13.1016C5.7584 13.1016 5.84591 13.0972 5.98594 13.014C6.19597 12.8828 6.30098 12.6859 6.30098 12.4015C6.30098 12.117 6.19597 11.9201 5.98594 11.7889C5.84591 11.7057 5.7584 11.7013 3.15049 11.7013C0.542585 11.7013 0.455071 11.7057 0.315049 11.7889Z" fill="#E0E0FB"/>
</svg>
