<svg width="16" height="17" viewBox="0 0 16 17" fill="none" xmlns="http://www.w3.org/2000/svg">
<path d="M7.02946 0.546126C5.32526 0.75404 3.68582 1.53115 2.45879 2.71387C1.98844 3.16719 1.6919 3.51484 1.33402 4.04996C0.676201 5.02477 0.2297 6.19726 0.0456468 7.4311C-0.0225213 7.90486 -0.0122961 9.21369 0.0626888 9.68064C0.301277 11.1258 0.856846 12.4074 1.71235 13.4912C1.96117 13.8082 2.69057 14.5376 3.00755 14.7864C4.08801 15.6385 5.38661 16.2009 6.81814 16.4361C7.34644 16.5213 8.64163 16.5213 9.16994 16.4361C10.898 16.1532 12.3534 15.434 13.56 14.2683C14.9267 12.9459 15.7822 11.1769 15.9731 9.27163C16.0208 8.77401 15.997 7.77535 15.9186 7.29476C15.3426 3.67163 12.4454 0.914234 8.80524 0.529085C8.36555 0.484776 7.48619 0.491592 7.02946 0.546126ZM8.35874 3.54552C8.5462 3.658 8.57687 3.70912 9.25855 5.16792C9.6812 6.07115 9.83457 6.36427 9.8857 6.37449C9.92319 6.38472 10.5128 6.47674 11.1979 6.58241C11.883 6.68466 12.4999 6.78691 12.5715 6.80395C12.7453 6.84826 12.9771 7.08344 13.0317 7.26408C13.1441 7.64583 13.076 7.76171 12.2614 8.58995C11.8932 8.96488 11.4433 9.42501 11.2593 9.61247L10.9287 9.95331L11.1673 11.3848C11.2934 12.1722 11.4024 12.8539 11.4024 12.9016C11.4024 13.0379 11.2491 13.3276 11.1229 13.4231C10.9593 13.5492 10.7208 13.6071 10.5537 13.5628C10.4788 13.5424 9.87547 13.2254 9.20743 12.8539L7.99745 12.1824L6.74315 12.8743C5.53317 13.5424 5.48545 13.5662 5.29799 13.5662C5.02532 13.5662 4.80718 13.4265 4.68107 13.1777C4.62654 13.0754 4.58564 12.9527 4.58564 12.905C4.58564 12.8573 4.69471 12.1722 4.82082 11.3848L5.0594 9.95331L4.72879 9.61247C4.54474 9.42501 4.09483 8.96488 3.73013 8.58995C3.36202 8.21503 3.03481 7.85374 3.00073 7.78898C2.90189 7.59811 2.91552 7.32544 3.028 7.13457C3.20183 6.83463 3.24614 6.82099 4.79696 6.58581L6.16713 6.37449L6.56592 5.52239C7.40098 3.74662 7.43847 3.67504 7.55435 3.59324C7.8168 3.40578 8.08947 3.39214 8.35874 3.54552Z" fill="white"/>
</svg>
