<svg width="16" height="15" viewBox="0 0 16 15" fill="none" xmlns="http://www.w3.org/2000/svg">
<path d="M7.5401 0.463526C7.68977 0.0028708 8.34148 0.00286996 8.49115 0.463525L9.92399 4.87336C9.99093 5.07937 10.1829 5.21885 10.3995 5.21885H15.0363C15.5207 5.21885 15.722 5.83865 15.3302 6.12336L11.579 8.84878C11.4037 8.9761 11.3304 9.20179 11.3973 9.4078L12.8302 13.8176C12.9798 14.2783 12.4526 14.6613 12.0607 14.3766L8.30952 11.6512C8.13427 11.5239 7.89698 11.5239 7.72173 11.6512L3.97051 14.3766C3.57865 14.6613 3.05141 14.2783 3.20109 13.8176L4.63393 9.4078C4.70086 9.20179 4.62753 8.9761 4.45229 8.84878L0.701066 6.12336C0.309209 5.83866 0.510597 5.21885 0.994958 5.21885H5.63173C5.84834 5.21885 6.04032 5.07937 6.10726 4.87336L7.5401 0.463526Z" fill="#CA8928"/>
</svg>
