<svg width="15" height="14" viewBox="0 0 15 14" fill="none" xmlns="http://www.w3.org/2000/svg">
<path d="M8.82344 0.0776114C8.41404 0.293901 8.28658 0.89256 8.55694 1.32128C8.75392 1.63026 8.79254 1.63799 10.1559 1.66116L11.3417 1.68047L9.13629 3.88199C7.84241 5.17587 6.90001 6.14531 6.85366 6.23415C6.73779 6.46202 6.76483 6.84825 6.91932 7.06454C7.08154 7.30401 7.29783 7.41602 7.59136 7.41602C7.72268 7.41602 7.8849 7.39284 7.95442 7.36194C8.02394 7.33104 9.02815 6.35388 10.2988 5.08318L12.5197 2.85848L12.539 4.04421C12.5622 5.40761 12.5699 5.44623 12.8789 5.64321C13.3192 5.9213 13.9372 5.77453 14.1264 5.34581C14.1998 5.18746 14.1998 5.06773 14.1921 2.82758L14.1805 0.479293L14.0762 0.320938C14.0144 0.228242 13.9063 0.131684 13.8058 0.0814738C13.6359 0.000365257 13.6011 0.000365257 11.2992 0.000365257C9.06291 0.00422764 8.95862 0.00809002 8.82344 0.0776114Z" fill="url(#paint0_linear_60_315)"/>
<path d="M1.32281 0.887431C0.828435 1.04579 0.407442 1.46678 0.256812 1.95729C0.179565 2.20448 0.179565 2.30876 0.179565 7.41475C0.179565 12.4976 0.179565 12.625 0.256812 12.8683C0.40358 13.3395 0.812986 13.7683 1.2726 13.9305C1.46185 13.9961 1.77084 14 6.78413 14C11.7974 14 12.1064 13.9961 12.2957 13.9305C12.7553 13.7683 13.1647 13.3395 13.3114 12.8683C13.3848 12.6366 13.3887 12.5091 13.3887 10.7209C13.3887 8.96354 13.381 8.81291 13.3153 8.67C13.072 8.13314 12.2493 8.06362 11.8669 8.54641L11.7472 8.69704L11.7356 10.5278L11.724 12.3585H6.78413H1.84036V7.41475V2.47098H3.61703C5.28941 2.47098 5.40528 2.46712 5.54046 2.3976C5.90738 2.20834 6.05801 1.79894 5.93056 1.3316C5.87648 1.13462 5.64861 0.906742 5.45163 0.85267C5.34735 0.825634 4.67917 0.810184 3.42391 0.814047C1.69746 0.814047 1.53138 0.821772 1.32281 0.887431Z" fill="url(#paint1_linear_60_315)"/>
<defs>
<linearGradient id="paint0_linear_60_315" x1="6.63387" y1="3.7082" x2="14.1989" y2="3.69384" gradientUnits="userSpaceOnUse">
<stop stop-color="#0ECA90"/>
<stop offset="1" stop-color="#11C2B6"/>
</linearGradient>
<linearGradient id="paint1_linear_60_315" x1="-0.0846171" y1="7.40674" x2="13.3949" y2="7.38111" gradientUnits="userSpaceOnUse">
<stop stop-color="#0ECA90"/>
<stop offset="1" stop-color="#11C2B6"/>
</linearGradient>
</defs>
</svg>
